<?xml version="1.0" encoding="UTF-8" standalone="no"?>
<!-- Created with Inkscape (http://www.inkscape.org/) -->

<svg
   xmlns:dc="http://purl.org/dc/elements/1.1/"
   xmlns:cc="http://creativecommons.org/ns#"
   xmlns:rdf="http://www.w3.org/1999/02/22-rdf-syntax-ns#"
   xmlns:svg="http://www.w3.org/2000/svg"
   xmlns="http://www.w3.org/2000/svg"
   xmlns:sodipodi="http://sodipodi.sourceforge.net/DTD/sodipodi-0.dtd"
   xmlns:inkscape="http://www.inkscape.org/namespaces/inkscape"
   width="106.29921"
   height="106.29921"
   id="svg2"
   version="1.1"
   inkscape:version="0.48.4 r9939"
   sodipodi:docname="makerspace-sticker-plain-3x3.svg"
   inkscape:export-filename="/home/karolis/Downloads/makerspace-logos/makerspace-sticker-newlogo4.png"
   inkscape:export-xdpi="300.05066"
   inkscape:export-ydpi="300.05066">
  <defs
     id="defs4" />
  <sodipodi:namedview
     id="base"
     pagecolor="#ffffff"
     bordercolor="#666666"
     borderopacity="1.0"
     inkscape:pageopacity="0.0"
     inkscape:pageshadow="2"
     inkscape:zoom="3.1112698"
     inkscape:cx="87.458265"
     inkscape:cy="58.820092"
     inkscape:document-units="cm"
     inkscape:current-layer="layer4"
     showgrid="false"
     showguides="false"
     inkscape:guide-bbox="true"
     inkscape:window-width="1366"
     inkscape:window-height="744"
     inkscape:window-x="0"
     inkscape:window-y="24"
     inkscape:window-maximized="1"
     units="cm"
     inkscape:snap-global="false">
    <sodipodi:guide
       orientation="0,1"
       position="110.37402,141.73228"
       id="guide3864" />
    <sodipodi:guide
       orientation="1,0"
       position="141.73228,152.2805"
       id="guide3866" />
  </sodipodi:namedview>
  <metadata
     id="metadata7">
    <rdf:RDF>
      <cc:Work
         rdf:about="">
        <dc:format>image/svg+xml</dc:format>
        <dc:type
           rdf:resource="http://purl.org/dc/dcmitype/StillImage" />
        <dc:title></dc:title>
      </cc:Work>
    </rdf:RDF>
  </metadata>
  <g
     inkscape:groupmode="layer"
     id="layer4"
     inkscape:label="Layer#2"
     transform="translate(0,-946.06168)"
     style="display:inline">
    <text
       xml:space="preserve"
       style="font-size:45.30070496px;font-style:normal;font-variant:normal;font-weight:normal;font-stretch:normal;line-height:125%;letter-spacing:0px;word-spacing:0px;fill:#000000;fill-opacity:1;stroke:none;font-family:AngsanaUPC;-inkscape-font-specification:AngsanaUPC"
       id="text4132"
       sodipodi:linespacing="125%"
       y="777.72076"
       x="-181.44702"><tspan
         sodipodi:role="line"
         id="tspan4134"
         x="-181.44702"
         y="777.72076" /></text>
    <g
       style="display:inline"
       inkscape:transform-center-y="3.469416"
       inkscape:transform-center-x="-5.5509907"
       id="g3031"
       transform="matrix(0.70090811,0,0,0.70090811,-35.931183,364.61716)">
      <path
         inkscape:connector-curvature="0"
         id="path3034"
         d="m 164.75613,945.60253 15.32444,-8.56154 0,-17.62672 -15.32444,8.77739 z"
         style="fill:#dfa61f;fill-opacity:1;stroke:none;display:inline" />
      <path
         inkscape:connector-curvature="0"
         id="path3036"
         d="m 149.7914,919.41427 14.96473,-8.4896 0,-35.03759 -14.96473,-8.4896 0,17.26698 14.96473,8.63349 -14.96473,8.70545 z"
         style="fill:#dfa61f;fill-opacity:1;stroke:none;display:inline" />
      <path
         inkscape:connector-curvature="0"
         id="path3038"
         d="m 119.65238,884.67074 -0.0379,17.10118 14.82302,-8.5859 z m -30.720849,17.33713 0,35.03939 c 10.242527,-5.87816 20.488339,-11.7506 30.727399,-17.6348 l -0.0777,-17.63665 -15.18856,9.14614 -0.67989,-0.3903 -7.41581,-4.28078 z m 0,35.03939 0,17.07274 15.461149,8.80076 0,-17.31195 z m 32.168759,-16.77056 -1.44382,-0.86424 -0.004,2.99204 0,14.64276 14.88198,8.56155 0,-17.41268 z m 13.43407,25.33211 -14.88198,8.51119 0,17.65189 30.14168,-17.65189 0,-17.07274 z"
         style="fill:#dfa61f;fill-opacity:1;stroke:none;display:inline"
         sodipodi:nodetypes="cccccccccccccccccccccccccccccc" />
      <path
         inkscape:connector-curvature="0"
         id="path3040"
         d="m 88.925278,937.04099 15.468342,-8.84933 15.31899,8.84933 -15.33561,8.57816 z"
         style="fill:#df261f;fill-opacity:1;stroke:none;display:inline"
         sodipodi:nodetypes="ccccc" />
      <path
         inkscape:connector-curvature="0"
         id="path3042"
         d="m 119.59882,901.79188 0.0536,-17.12114 -15.2597,-8.78818 c -5.154328,2.92832 -10.308095,5.85762 -15.461149,8.78818 l 0,17.33713 c 5.123918,2.93878 15.461149,8.91408 15.461149,8.91408 m 45.40138,-26.25121 c -5.08722,-2.92826 -10.17247,-5.85989 -15.2597,-8.78818 l -14.88198,8.78818 14.78594,8.5563 z m -60.862529,17.33713 -14.831622,-8.71263 0,17.62671 14.831622,8.4986 z m 75.820059,-8.71263 0,17.62671 -14.95753,8.4986 0,17.62671 14.95753,8.56155 0,-17.41268 15.33524,-8.77558 0,-17.41268 z m -45.14711,8.39766 0.0519,17.7269 14.87801,8.77633 10.07241,-5.79163 1.48568,-0.85616 3.70161,-2.12779 0,-17.41268 -15.33994,-8.8348 z"
         style="fill:#df261f;fill-opacity:1;stroke:none;display:inline"
         sodipodi:nodetypes="cccccccccccccccccccccccccccccccccc" />
      <path
         inkscape:connector-curvature="0"
         id="path3044"
         d="m 164.75613,858.54814 15.32444,8.84934 -15.32444,8.4896 -14.96473,-8.4896 z"
         style="fill:#df261f;fill-opacity:1;stroke:none;display:inline" />
      <path
         inkscape:connector-curvature="0"
         id="path3046"
         d="m 134.53436,841.2083 -14.88198,9.21625 0,16.97201 -15.2597,8.486 15.2597,8.78818 14.88198,-8.78818 c 5.08801,2.9269 10.17508,5.85541 15.2597,8.78818 l 0,-17.27418 14.95753,-8.85113 z m 15.2597,43.46244 -15.3556,8.55778 15.35563,8.77939 14.95753,-8.71263 -14.95753,-8.6245 z m 14.95753,8.6245 15.33524,-8.6245 0,-17.27418 -15.33524,8.486 z m -60.35891,-17.41268 -15.461149,-8.486 -14.831622,8.486 0,17.41268 14.831622,8.71263 0,-17.33713 c 0,0 9.878041,-5.61537 15.461149,-8.78818 z"
         style="fill:#df661f;fill-opacity:1;stroke:none;display:inline"
         sodipodi:nodetypes="cccccccccccccccccccccccccccc" />
      <path
         inkscape:connector-curvature="0"
         id="path3048"
         d="m 149.79406,919.42055 -15.2597,8.77558 0,17.41268 -14.88198,-8.56155 -15.2597,8.56155 0,17.31195 15.2597,8.85113 0,-17.65189 30.14168,-17.07274 z m -30.14168,17.62671 0,-14.64276 0.0125,-2.98705 -15.27223,8.77868 z"
         style="fill:#df661f;fill-opacity:1;stroke:none;display:inline"
         sodipodi:nodetypes="ccccccccccccccc" />
    </g>
    <path
       style="font-size:67.95020294px;font-style:normal;font-variant:normal;font-weight:normal;font-stretch:normal;text-indent:0;text-align:start;text-decoration:none;line-height:125%;letter-spacing:0px;word-spacing:0px;text-transform:none;direction:ltr;block-progression:tb;writing-mode:lr-tb;text-anchor:start;baseline-shift:baseline;color:#000000;fill:#df261f;fill-opacity:1;fill-rule:nonzero;stroke:none;stroke-width:7.82248354;marker:none;visibility:visible;display:inline;overflow:visible;enable-background:accumulate;font-family:Sans;-inkscape-font-specification:Sans"
       d="m 28.279941,992.63832 -3.293746,0 0,2.65295 -2.53759,-0.42299 -3.985816,-2.22996 -6.074844,0 -0.115346,0.37162 -0.102528,-0.37162 -1.204716,0 -4.9342086,0 -1.602016,0 0,4.62661 0.9355776,0 0,3.20407 -0.9355776,0 0.00378,4.6393 c 0,0 15.1231066,-0.014 22.0015456,-0.012 l 0.217877,0 1.384138,0 1.486668,0 1.050923,0 0.551092,0 1.050923,0 2.934902,0 1.602005,0 0,-0.1666 c 0.664484,0.2373 1.399918,0.3589 2.165932,0.3589 0.806546,0 1.513139,-0.1671 2.165922,-0.4101 l 0,0.2178 1.602015,0 4.062715,0 1.602016,0 18.814036,0.1923 c 0,0 1.372909,-0.1629 1.973676,-0.4486 l 0.269138,0.2563 c 1.649007,0 3.298024,0 4.947031,0 l 0,-0.2563 c 0.742149,0.2972 1.564136,0.4486 2.422246,0.4486 1.430704,0 2.602395,-0.5415 3.473168,-1.3073 0.976185,0.8652 2.301582,1.3073 3.767947,1.3073 1.242112,0 2.314567,-0.3396 3.165584,-0.8715 0.0066,0.01 0.0057,0.019 0.01275,0.025 0.596167,0.5766 1.417125,0.8458 2.217193,0.8458 0.71565,0 1.42688,-0.2594 1.999315,-0.7176 l 0,0.5254 c 1.849803,0 3.699594,0 5.549386,0 l 0,-0.1281 c 0.596368,0.2264 1.234267,0.3203 1.883971,0.3203 0.744492,0 1.385895,-0.104 1.883965,-0.2434 l 1.17909,-0.3333 c 0,-1.6148 0,-2.717 0,-4.3318 l -1.28162,0.3845 0,-1.0767 1.17909,0 c 0,-1.5421 0,-3.08439 0,-4.62656 l -1.14063,0 c 0,-0.6707 0,-1.34139 0,-2.01209 l -4.267773,0 -0.04665,-0.40429 -6.592149,-0.009 0,4.6266 -0.346039,1.89674 c 0,0 -0.340109,0.063 -0.512647,0.09 -0.137086,-1.058 -0.424422,-2.06246 -1.114999,-2.84516 -0.920769,-1.04354 -2.336278,-1.53792 -3.832023,-1.53792 -1.343132,0 -2.591487,0.41817 -3.550069,1.20474 -0.09892,-0.0935 -0.185022,-0.20162 -0.294769,-0.28199 -0.936473,-0.6859 -2.082543,-0.92275 -3.345016,-0.92275 -1.499833,0 -2.906853,0.43866 -3.921729,1.38417 -0.16265,-0.19775 -0.324404,-0.38521 -0.538277,-0.53829 -1.00835,-0.7217 -2.171333,-0.84588 -3.537254,-0.84588 -1.271114,0 -3.332192,0.6536 -3.332192,0.6536 l -15.456258,0.20458 c 0,0 -1.350017,-0.85872 -2.140282,-0.85872 -10.296189,4.00622 -19.518893,-2.22996 -19.518893,-2.22996 z"
       id="text3920"
       inkscape:connector-curvature="0"
       sodipodi:nodetypes="ccccccccccccccccccccccccccsccccccccccscsccsccccscccccccccccccccsscsscsscccc" />
    <g
       style="font-size:67.95020294px;font-style:normal;font-weight:normal;line-height:125%;letter-spacing:0px;word-spacing:0px;fill:#ffffff;fill-opacity:1;stroke:none;display:inline;font-family:Sans"
       id="text3877"
       transform="matrix(0.41011607,0,0,0.41011607,-4.9770817,626.52)">
      <path
         d="m 26.853174,919.19031 8.663651,0 0,-3.46546 -1.426954,0 c -0.611552,0 -0.815403,-0.23783 -0.815403,-1.22311 l 0,-12.87656 4.960365,17.56513 4.416763,0 5.300116,-17.73501 0,13.04644 c 0,0.98528 -0.203851,1.22311 -0.815402,1.22311 l -1.189129,0 0,3.46546 11.041908,0 0,-3.46546 -1.189129,0 c -0.645526,0 -0.815402,-0.23783 -0.815402,-1.22311 l 0,-13.21631 c 0,-0.9513 0.169876,-1.18913 0.815402,-1.18913 l 1.189129,0 0,-3.46546 -11.72141,0 -3.227635,10.87203 -3.159684,-10.87203 -12.027186,0 0,3.46546 1.460929,0 c 0.645527,0 0.815403,0.23783 0.815403,1.18913 l 0,13.21631 c 0,0.98528 -0.169876,1.22311 -0.815403,1.22311 l -1.460929,0 0,3.46546"
         style="font-size:33.97510147px;font-variant:normal;font-weight:bold;font-stretch:normal;fill:#ffffff;font-family:Jubilat;-inkscape-font-specification:Jubilat Bold"
         id="path4771"
         inkscape:connector-curvature="0" />
      <path
         d="m 65.861899,905.39642 c 1.868629,0 2.582108,0.8154 2.582108,2.5821 l 0,0.91733 c -4.824459,0.84938 -10.600232,1.59684 -10.600232,6.2854 0,2.5821 1.902609,4.48471 5.130241,4.48471 2.446205,0 4.72254,-1.29106 5.537941,-3.02378 0.373726,1.15515 0.713478,1.80068 1.494905,2.54813 l 6.591169,0 0,-3.46546 -0.883352,0 c -0.475651,0 -0.645527,-0.2718 -0.645527,-1.05323 l 0,-6.72707 c 0,-4.31483 -2.208388,-5.87769 -8.188,-5.87769 -5.469985,0 -8.52775,1.52888 -8.52775,4.55266 0,1.93658 1.189131,2.98981 3.295585,2.98981 1.800678,0 3.125709,-1.18913 3.125709,-2.78596 0,-0.47565 -0.101925,-0.88335 -0.237826,-1.29105 0.339751,-0.0679 0.781428,-0.1359 1.325029,-0.1359 m -0.1359,10.53228 c -0.985277,0 -1.698755,-0.67951 -1.698755,-1.69876 0,-1.93658 2.072483,-2.48018 4.416763,-2.85391 l 0,1.22311 c 0,1.97055 -0.917329,3.32956 -2.718008,3.32956"
         style="font-size:33.97510147px;font-variant:normal;font-weight:bold;font-stretch:normal;fill:#ffffff;font-family:Jubilat;-inkscape-font-specification:Jubilat Bold"
         id="path4773"
         inkscape:connector-curvature="0" />
      <path
         d="m 77.116681,919.19031 9.580979,0 0,-3.46546 -0.713477,0 c -0.441676,0 -0.713477,-0.1359 -0.679502,-1.05323 l 0,-0.57758 2.072481,-1.86863 1.52888,2.65006 c 0.20385,0.47565 0.169875,0.84938 -0.237826,0.84938 l -0.645527,0 0,3.46546 9.716879,0 0,-3.46546 -0.611552,0 c -0.339751,0 -0.713477,-0.10193 -1.087203,-0.74745 l -3.839187,-6.48925 2.208382,-1.83465 c 0.441676,-0.37373 0.815403,-0.64553 1.392979,-0.64553 l 1.257079,0 0,-3.46546 -9.580979,0 0,3.46546 1.359004,0 c 0.509626,0 0.713477,0.57758 0.339751,0.91733 l -3.873161,3.56738 0,-14.26954 c -0.849377,0.20385 -2.378259,0.4077 -4.212913,0.4077 l -4.110987,0 0,3.46546 1.019253,0 c 0.509626,0 0.679502,0.2718 0.679502,1.2231 l 0,13.35222 c 0,0.91733 -0.237826,1.05323 -0.679502,1.05323 l -0.883353,0 0,3.46546"
         style="font-size:33.97510147px;font-variant:normal;font-weight:bold;font-stretch:normal;fill:#ffffff;font-family:Jubilat;-inkscape-font-specification:Jubilat Bold"
         id="path4775"
         inkscape:connector-curvature="0" />
      <path
         d="m 115.25665,912.08951 0,-0.6795 c 0,-5.97961 -2.71801,-9.34315 -8.49377,-9.34315 -5.57191,0 -9.139305,3.49944 -9.139305,8.76557 0,5.23216 3.261615,8.83353 9.309175,8.83353 4.55266,0 6.9649,-1.76671 8.188,-4.11099 l -3.09173,-2.20838 c -0.61155,1.29105 -1.69876,2.37826 -3.77124,2.37826 -2.3103,0 -3.73726,-1.15516 -3.83918,-3.63534 l 10.83805,0 m -8.4598,-6.59117 c 1.46093,0 2.10646,0.98528 2.17441,3.73726 l -4.65459,0 c 0.1359,-2.68403 0.88335,-3.73726 2.48018,-3.73726"
         style="font-size:33.97510147px;font-variant:normal;font-weight:bold;font-stretch:normal;fill:#ffffff;font-family:Jubilat;-inkscape-font-specification:Jubilat Bold"
         id="path4777"
         inkscape:connector-curvature="0" />
      <path
         d="m 124.32615,902.13481 c -0.88335,0.20385 -2.41224,0.4077 -4.21291,0.4077 l -4.11099,0 0,3.46546 1.01925,0 c 0.5436,0 0.6795,0.2718 0.6795,1.2231 l 0,7.44055 c 0,0.91733 -0.23782,1.05323 -0.6795,1.05323 l -0.88335,0 0,3.46546 9.88675,0 0,-3.46546 -1.01925,0 c -0.44168,0 -0.6795,-0.1359 -0.6795,-1.05323 l 0,-3.94111 c 0.10192,-2.98981 0.78143,-4.51869 2.51416,-4.51869 0.30577,0 0.61155,0.0679 0.84937,0.20385 -0.84937,0.57758 -1.32503,1.42695 -1.32503,2.48018 0,1.4949 1.29106,2.58211 2.85391,2.58211 2.27633,0 3.77124,-1.63081 3.77124,-4.31484 0,-3.09173 -1.63081,-5.09626 -4.31484,-5.09626 -2.14043,0 -3.66931,1.05323 -4.34881,3.46546 l 0,-3.39751"
         style="font-size:33.97510147px;font-variant:normal;font-weight:bold;font-stretch:normal;fill:#ffffff;font-family:Jubilat;-inkscape-font-specification:Jubilat Bold"
         id="path4779"
         inkscape:connector-curvature="0" />
      <path
         d="m 133.92836,918.34093 c 1.4949,0.5436 3.97509,1.32503 7.03285,1.32503 5.06228,0 7.78029,-2.20839 7.78029,-5.94564 0,-3.77124 -3.19366,-4.75652 -5.77576,-5.36807 -1.93658,-0.44168 -3.26161,-0.57758 -3.26161,-1.76671 0,-0.88335 0.78142,-1.42695 2.10645,-1.42695 0.71348,0 1.56286,0.1359 2.03851,0.30578 l 0,2.07248 4.11099,0 0,-4.14496 c -1.29106,-0.61156 -3.70329,-1.32503 -6.5572,-1.32503 -4.96036,0 -7.71235,2.24236 -7.71235,5.87769 0,3.66931 3.05777,4.65459 5.67385,5.26614 2.10645,0.44168 3.36353,0.71348 3.36353,1.86863 0,1.01925 -0.84938,1.4949 -2.20838,1.4949 -0.88335,0 -1.63081,-0.0679 -2.27633,-0.23782 l 0,-2.27633 -4.31484,0 0,4.28086"
         style="font-size:33.97510147px;font-variant:normal;font-weight:bold;font-stretch:normal;fill:#ffffff;font-family:Jubilat;-inkscape-font-specification:Jubilat Bold"
         id="path4781"
         inkscape:connector-curvature="0" />
      <path
         d="m 149.51285,925.03403 9.85277,0 0,-3.46547 -0.98527,0 c -0.44168,0 -0.67951,-0.1359 -0.67951,-1.05322 l 0,-3.73726 c 0.81541,1.7667 2.34429,2.88788 4.92639,2.88788 4.41676,0 7.27068,-3.49944 7.27068,-8.79955 0,-5.30011 -2.65007,-8.79955 -6.9649,-8.79955 -2.78596,0 -4.48471,1.25708 -5.33409,3.39751 l 0,-3.32956 c -0.84938,0.20385 -2.37826,0.4077 -4.21291,0.4077 l -4.00907,0 0,3.46546 1.01926,0 c 0.50962,0 0.6795,0.2718 0.6795,1.2231 l 0,13.28427 c 0,0.91732 -0.23783,1.05322 -0.6795,1.05322 l -0.88335,0 0,3.46547 m 10.83805,-9.44508 c -1.6308,0 -2.65006,-1.18913 -2.65006,-4.41677 l 0,-0.61155 c 0,-3.2616 1.01926,-4.41676 2.65006,-4.41676 1.63081,0 2.65006,1.18913 2.65006,4.41676 l 0,0.61155 c 0,3.22764 -1.01925,4.41677 -2.65006,4.41677"
         style="font-size:33.97510147px;font-variant:normal;font-weight:bold;font-stretch:normal;fill:#ffffff;font-family:Jubilat;-inkscape-font-specification:Jubilat Bold"
         id="path4783"
         inkscape:connector-curvature="0" />
      <path
         d="m 178.70303,905.39642 c 1.86863,0 2.5821,0.8154 2.5821,2.5821 l 0,0.91733 c -4.82446,0.84938 -10.60023,1.59684 -10.60023,6.2854 0,2.5821 1.90261,4.48471 5.13024,4.48471 2.44621,0 4.72254,-1.29106 5.53794,-3.02378 0.37373,1.15515 0.71348,1.80068 1.49491,2.54813 l 6.59117,0 0,-3.46546 -0.88335,0 c -0.47565,0 -0.64553,-0.2718 -0.64553,-1.05323 l 0,-6.72707 c 0,-4.31483 -2.20839,-5.87769 -8.188,-5.87769 -5.46999,0 -8.52775,1.52888 -8.52775,4.55266 0,1.93658 1.18913,2.98981 3.29558,2.98981 1.80068,0 3.12571,-1.18913 3.12571,-2.78596 0,-0.47565 -0.10192,-0.88335 -0.23782,-1.29105 0.33975,-0.0679 0.78143,-0.1359 1.32503,-0.1359 m -0.1359,10.53228 c -0.98528,0 -1.69876,-0.67951 -1.69876,-1.69876 0,-1.93658 2.07248,-2.48018 4.41676,-2.85391 l 0,1.22311 c 0,1.97055 -0.91733,3.32956 -2.718,3.32956"
         style="font-size:33.97510147px;font-variant:normal;font-weight:bold;font-stretch:normal;fill:#ffffff;font-family:Jubilat;-inkscape-font-specification:Jubilat Bold"
         id="path4785"
         inkscape:connector-curvature="0" />
      <path
         d="m 200.25785,908.9638 c 0,1.56286 1.18913,2.85391 3.22763,2.85391 2.27633,0 3.60136,-1.66478 3.60136,-4.00906 0,-3.66931 -2.78596,-5.74179 -7.88222,-5.74179 -5.84371,0 -9.37713,3.29559 -9.37713,8.7316 0,5.63986 3.49944,8.8675 9.41111,8.8675 4.48471,0 6.72707,-1.93658 7.81427,-4.62061 l -3.39751,-1.93659 c -0.6795,1.63081 -1.76671,2.51416 -3.56739,2.51416 -2.24235,0 -3.53341,-1.39298 -3.53341,-4.62061 l 0,-0.78143 c 0,-3.32956 1.32503,-4.75651 3.66931,-4.75651 1.05323,0 1.83466,0.20385 2.34429,0.64552 -1.49491,0.33975 -2.31031,1.39298 -2.31031,2.85391"
         style="font-size:33.97510147px;font-variant:normal;font-weight:bold;font-stretch:normal;fill:#ffffff;font-family:Jubilat;-inkscape-font-specification:Jubilat Bold"
         id="path4787"
         inkscape:connector-curvature="0" />
      <path
         d="m 225.24442,912.08951 0,-0.6795 c 0,-5.97961 -2.71802,-9.34315 -8.49378,-9.34315 -5.57191,0 -9.1393,3.49944 -9.1393,8.76557 0,5.23216 3.26161,8.83353 9.30918,8.83353 4.55265,0 6.96489,-1.76671 8.18799,-4.11099 l -3.09173,-2.20838 c -0.61155,1.29105 -1.69876,2.37826 -3.77124,2.37826 -2.3103,0 -3.73726,-1.15516 -3.83918,-3.63534 l 10.83806,0 m -8.45981,-6.59117 c 1.46093,0 2.10646,0.98528 2.17441,3.73726 l -4.65459,0 c 0.1359,-2.68403 0.88336,-3.73726 2.48018,-3.73726"
         style="font-size:33.97510147px;font-variant:normal;font-weight:bold;font-stretch:normal;fill:#ffffff;font-family:Jubilat;-inkscape-font-specification:Jubilat Bold"
         id="path4789"
         inkscape:connector-curvature="0" />
      <path
         d="m 230.06782,919.66596 c 2.20838,0 3.70328,-1.42696 3.70328,-3.56739 0,-2.10645 -1.4949,-3.56738 -3.70328,-3.56738 -2.24236,0 -3.70329,1.46093 -3.70329,3.56738 0,2.14043 1.46093,3.56739 3.70329,3.56739"
         style="font-size:33.97510147px;font-variant:normal;font-weight:bold;font-stretch:normal;fill:#ffffff;font-family:Jubilat;-inkscape-font-specification:Jubilat Bold"
         id="path4791"
         inkscape:connector-curvature="0" />
      <path
         d="m 234.95227,919.19031 9.61495,0 0,-3.46546 -0.74745,0 c -0.4077,0 -0.64553,-0.1359 -0.64553,-1.05323 l 0,-18.44848 c -0.88335,0.20385 -2.41223,0.4077 -4.24689,0.4077 l -4.11098,0 0,3.46546 1.05323,0 c 0.50962,0 0.64552,0.2718 0.64552,1.2231 l 0,13.35222 c 0,0.91733 -0.23782,1.05323 -0.64552,1.05323 l -0.91733,0 0,3.46546"
         style="font-size:33.97510147px;font-variant:normal;font-weight:bold;font-stretch:normal;fill:#ffffff;font-family:Jubilat;-inkscape-font-specification:Jubilat Bold"
         id="path4793"
         inkscape:connector-curvature="0" />
      <path
         d="m 253.07798,919.66596 c 1.35901,0 2.68404,-0.23783 3.53341,-0.47565 l 0,-3.60136 c -0.33975,0.10192 -0.74745,0.23782 -1.32503,0.23782 -1.18912,0 -1.80068,-0.47565 -1.80068,-2.07248 l 0,-7.74632 2.88789,0 0,-3.46546 -2.78596,0 0,-4.92639 -4.45074,0 -0.4077,2.65006 c -0.30578,1.59682 -1.29106,2.20838 -2.81993,2.54813 0.034,0 -0.78143,0.10192 -0.78143,0.10192 l 0,3.09174 1.9026,0 0,7.71235 c 0,4.28085 1.66479,5.94564 6.04757,5.94564"
         style="font-size:33.97510147px;font-variant:normal;font-weight:bold;font-stretch:normal;fill:#ffffff;font-family:Jubilat;-inkscape-font-specification:Jubilat Bold"
         id="path4795"
         inkscape:connector-curvature="0" />
    </g>
  </g>
</svg>
